<svg width="466" height="90" viewBox="0 0 466 90" fill="none" xmlns="http://www.w3.org/2000/svg">
<g clip-path="url(#clip0_467_348)">
<path d="M111.83 25.2422C113.798 22.9335 115.278 20.9907 116.976 19.2396C126.511 9.36032 141.671 9.97887 149.09 20.6858C152.965 26.2876 153.809 32.8651 153.835 39.4687C153.861 46.6299 153.426 53.7824 153.348 60.9436C153.295 65.7613 154.001 70.1608 160.113 71.1889C161.063 71.3457 162.482 73.088 162.386 73.9767C162.264 75.1963 161.167 76.7209 160.053 77.3656C153.818 80.9462 144.292 77.2175 143.038 70.126C141.993 64.2542 142.55 58.1123 142.402 52.0836C142.324 49.0083 142.402 45.9156 142.132 42.8577C141.654 37.5695 139.546 33.2223 133.947 31.6628C128.044 30.0163 123.089 32.1246 119.136 36.3673C117.403 38.2229 116.141 40.6361 115.13 42.9883C113.816 46.0549 111.534 46.778 108.548 46.6561C105.596 46.5254 103.985 44.9224 103.41 42.1956C102.261 36.6809 99.5266 32.3859 93.6403 31.3057C87.1881 30.1121 81.8678 32.534 77.9233 37.6741C72.8904 44.2429 71.4623 51.9965 70.8876 59.9766C70.5916 64.0364 70.5654 68.1223 70.2607 72.182C70.0169 75.4141 68.3276 77.5486 64.8794 77.6967C61.3529 77.8448 59.0106 75.9194 58.61 72.6002C58.1485 68.8279 58.0266 64.9337 58.4185 61.1701C59.6898 49.0083 62.8332 37.3517 69.538 26.9236C74.3532 19.3965 80.5965 13.5508 89.8003 11.7213C99.2393 9.84819 106.423 13.5595 110.411 22.2801C110.768 23.0555 111.151 23.8134 111.83 25.2422Z" fill="white"/>
<path d="M268.827 44.8521C276.951 39.2504 284.23 39.3288 291.005 47.0388C294.34 43.3711 298.136 41.167 303.117 41.2454C309.926 41.3586 315.351 44.9044 316.169 51.5429C317.04 58.5995 316.866 65.813 316.796 72.9568C316.77 75.9188 314.437 77.095 311.563 77.0165C308.777 76.9381 307.009 75.5617 306.905 72.7651C306.739 68.2001 306.835 63.6263 306.757 59.0613C306.73 57.467 306.73 55.8204 306.356 54.2784C305.659 51.4209 303.988 49.3388 300.757 49.1732C297.405 48.999 294.749 50.419 293.826 53.6425C293.094 56.2038 293.007 58.9742 292.859 61.6661C292.668 65.1161 292.685 68.5834 292.624 72.042C292.572 75.187 290.97 76.8684 287.8 76.9381C284.648 77.0078 282.802 75.2306 282.733 71.833C282.628 66.8933 282.828 61.9449 282.68 57.014C282.506 51.2554 279.354 48.3979 274.608 49.4172C271.073 50.1751 269.236 52.5448 269.088 55.9773C268.87 61.0302 268.94 66.1005 268.914 71.1621C268.905 73.889 268.043 76.0495 265.161 76.851C261.547 77.8616 258.674 75.8404 258.595 72.0246C258.412 63.7483 258.369 55.472 258.317 47.1956C258.299 44.5472 258.421 41.7768 261.599 40.8272C265.013 39.8166 267.416 41.2018 268.827 44.8608V44.8521Z" fill="white"/>
<path d="M396.479 71.9373C395.147 72.8521 394.25 73.4358 393.388 74.0543C383.749 80.9106 371.436 75.5876 370.426 63.8788C369.904 57.8763 370.147 51.7866 370.304 45.7406C370.4 42.0467 372.699 40.0691 375.955 40.2956C379.046 40.5134 380.457 42.552 380.44 46.3417C380.414 51.5078 380.361 56.6914 380.683 61.8402C380.901 65.3685 382.86 67.8514 386.674 68.348C390.645 68.8707 394.11 67.1893 395.321 63.4955C396.218 60.7425 396.392 57.7107 396.61 54.7835C396.827 51.9609 396.644 49.1034 396.723 46.272C396.81 43.2489 397.794 40.9577 401.39 40.7835C404.908 40.6092 407.032 42.038 407.328 45.9148C407.79 52.0567 407.755 58.2335 407.833 64.4015C407.86 66.4924 407.677 68.6006 407.416 70.6741C407.076 73.3748 406.85 76.3368 403.34 76.938C399.884 77.5304 397.541 76.0668 396.488 71.9373H396.479Z" fill="white"/>
<path d="M238.35 72.6787C235.137 74.1684 232.273 76.2331 229.129 76.8081C220.352 78.4111 213.151 72.6003 212.541 63.5224C212.141 57.6245 212.324 51.6742 212.463 45.7501C212.55 42.0127 214.675 40.157 218.097 40.3139C221.406 40.4707 222.668 42.5093 222.572 46.6126C222.459 51.6568 222.381 56.7271 222.825 61.7365C223.208 66.0924 225.724 68.2182 229.486 68.4098C233.596 68.6189 237.14 66.5455 237.767 62.4944C238.551 57.4067 238.429 52.1882 238.681 47.0308C238.812 44.3213 239.178 41.7949 242.434 40.9934C246.065 40.0961 249.296 41.821 249.409 45.6107C249.688 54.6014 249.583 63.6183 249.183 72.609C249.113 74.1248 247.084 76.2418 245.482 76.843C243.087 77.7403 240.545 76.9736 239.265 74.2033C238.969 73.5673 238.542 72.9923 238.35 72.6699V72.6787Z" fill="white"/>
<path d="M343.084 77.4784C331.712 77.1996 323.545 69.1498 323.875 58.5474C324.198 48.0321 333.027 39.9387 343.903 40.1826C354.926 40.4266 363.556 48.8161 363.364 59.1136C363.164 69.7596 354.343 77.7571 343.084 77.4784ZM353.707 59.1311C353.794 53.4335 349.728 49.0862 344.164 48.9207C338.086 48.7464 333.863 52.8759 333.811 59.0265C333.767 64.7851 337.816 68.9929 343.459 69.0539C349.293 69.1149 353.612 64.9245 353.699 59.1223L353.707 59.1311Z" fill="white"/>
<path d="M185.801 77.3914C174.412 77.2433 166.322 69.7336 166.322 59.3054C166.322 48.4416 175.082 40.1305 186.35 40.3047C197.46 40.4789 205.706 48.5723 205.576 59.1486C205.436 69.7771 197.034 77.5308 185.801 77.3826V77.3914ZM196.067 59.0963C196.172 53.3377 192.21 49.1212 186.541 48.9469C180.759 48.7727 176.31 52.9805 176.197 58.7391C176.083 64.6371 180.176 68.9582 185.958 69.0279C191.861 69.1063 195.954 65.0727 196.058 59.0876L196.067 59.0963Z" fill="white"/>
<path d="M109.757 57.7548C110.637 58.7044 111.377 59.4885 112.109 60.2813C115.748 64.2365 119.614 64.2104 123.28 60.3423C124.63 58.9222 125.779 55.542 128.348 58.112C130.525 60.29 127.878 62.2066 126.398 63.6354C122.671 67.1985 118.125 68.3572 113.371 66.1618C110.637 64.8986 108.565 64.7244 105.83 66.2141C101.703 68.4618 96.0867 67.4076 92.7866 63.9403C91.7417 62.8426 90.749 60.1593 91.3324 59.3927C92.9955 57.1973 94.7109 58.8961 96.2086 60.3335C100.606 64.5501 103.775 64.341 107.711 59.6714C108.242 59.0442 108.922 58.5389 109.766 57.7548H109.757Z" fill="white"/>
</g>
<defs>
<clipPath id="clip0_467_348">
<rect width="349.65" height="67.5" fill="white" transform="translate(58.1748 11.25)"/>
</clipPath>
</defs>
</svg>
