<svg width="518" height="125" viewBox="0 0 518 125" fill="none" xmlns="http://www.w3.org/2000/svg">
<g clip-path="url(#clip0_467_347)">
<path d="M137.83 25.2422C139.798 22.9335 141.278 20.9907 142.976 19.2396C152.511 9.36032 167.671 9.97887 175.09 20.6858C178.965 26.2876 179.809 32.8651 179.835 39.4687C179.861 46.6299 179.426 53.7824 179.348 60.9436C179.295 65.7613 180.001 70.1608 186.113 71.1889C187.063 71.3457 188.482 73.088 188.386 73.9767C188.264 75.1963 187.167 76.7209 186.053 77.3656C179.818 80.9462 170.292 77.2175 169.038 70.126C167.993 64.2542 168.55 58.1123 168.402 52.0836C168.324 49.0083 168.402 45.9156 168.132 42.8577C167.654 37.5695 165.546 33.2223 159.947 31.6628C154.044 30.0163 149.089 32.1246 145.136 36.3673C143.403 38.2229 142.141 40.6361 141.13 42.9883C139.816 46.0549 137.534 46.778 134.548 46.6561C131.596 46.5254 129.985 44.9224 129.41 42.1956C128.261 36.6809 125.527 32.3859 119.64 31.3057C113.188 30.1121 107.868 32.534 103.923 37.6741C98.8904 44.2429 97.4623 51.9965 96.8876 59.9766C96.5916 64.0364 96.5654 68.1223 96.2607 72.182C96.0169 75.4141 94.3276 77.5486 90.8794 77.6967C87.3529 77.8448 85.0106 75.9194 84.61 72.6002C84.1485 68.8279 84.0266 64.9337 84.4185 61.1701C85.6898 49.0083 88.8332 37.3517 95.538 26.9236C100.353 19.3965 106.596 13.5508 115.8 11.7213C125.239 9.84819 132.423 13.5595 136.411 22.2801C136.768 23.0555 137.151 23.8134 137.83 25.2422Z" fill="white"/>
<path d="M294.827 44.8521C302.951 39.2504 310.23 39.3288 317.005 47.0388C320.34 43.3711 324.136 41.167 329.117 41.2454C335.926 41.3586 341.351 44.9044 342.169 51.5429C343.04 58.5995 342.866 65.813 342.796 72.9568C342.77 75.9188 340.437 77.095 337.563 77.0165C334.777 76.9381 333.009 75.5617 332.905 72.7651C332.739 68.2001 332.835 63.6263 332.757 59.0613C332.73 57.467 332.73 55.8204 332.356 54.2784C331.659 51.4209 329.988 49.3388 326.757 49.1732C323.405 48.999 320.749 50.419 319.826 53.6425C319.094 56.2038 319.007 58.9742 318.859 61.6661C318.668 65.1161 318.685 68.5834 318.624 72.042C318.572 75.187 316.97 76.8684 313.8 76.9381C310.648 77.0078 308.802 75.2306 308.733 71.833C308.628 66.8933 308.828 61.9449 308.68 57.014C308.506 51.2554 305.354 48.3979 300.608 49.4172C297.073 50.1751 295.236 52.5448 295.088 55.9773C294.87 61.0302 294.94 66.1005 294.914 71.1621C294.905 73.889 294.043 76.0495 291.161 76.851C287.547 77.8616 284.674 75.8404 284.595 72.0246C284.412 63.7483 284.369 55.472 284.317 47.1956C284.299 44.5472 284.421 41.7768 287.599 40.8272C291.013 39.8166 293.416 41.2018 294.827 44.8608V44.8521Z" fill="white"/>
<path d="M422.479 71.9373C421.147 72.8521 420.25 73.4358 419.388 74.0543C409.749 80.9106 397.436 75.5876 396.426 63.8788C395.904 57.8763 396.147 51.7866 396.304 45.7406C396.4 42.0467 398.699 40.0691 401.955 40.2956C405.046 40.5134 406.457 42.552 406.44 46.3417C406.414 51.5078 406.361 56.6914 406.683 61.8402C406.901 65.3685 408.86 67.8514 412.674 68.348C416.645 68.8707 420.11 67.1893 421.321 63.4955C422.218 60.7425 422.392 57.7107 422.61 54.7835C422.827 51.9609 422.644 49.1034 422.723 46.272C422.81 43.2489 423.794 40.9577 427.39 40.7835C430.908 40.6092 433.032 42.038 433.328 45.9148C433.79 52.0567 433.755 58.2335 433.833 64.4015C433.86 66.4924 433.677 68.6006 433.416 70.6741C433.076 73.3748 432.85 76.3368 429.34 76.938C425.884 77.5304 423.541 76.0668 422.488 71.9373H422.479Z" fill="white"/>
<path d="M264.35 72.6787C261.137 74.1684 258.273 76.2331 255.129 76.8081C246.352 78.4111 239.151 72.6003 238.541 63.5224C238.141 57.6245 238.324 51.6742 238.463 45.7501C238.55 42.0127 240.675 40.157 244.097 40.3139C247.406 40.4707 248.668 42.5093 248.572 46.6126C248.459 51.6568 248.381 56.7271 248.825 61.7365C249.208 66.0924 251.724 68.2182 255.486 68.4098C259.596 68.6189 263.14 66.5455 263.767 62.4944C264.551 57.4067 264.429 52.1882 264.681 47.0308C264.812 44.3213 265.178 41.7949 268.434 40.9934C272.065 40.0961 275.296 41.821 275.409 45.6107C275.688 54.6014 275.583 63.6183 275.183 72.609C275.113 74.1248 273.084 76.2418 271.482 76.843C269.087 77.7403 266.545 76.9736 265.265 74.2033C264.969 73.5673 264.542 72.9923 264.35 72.6699V72.6787Z" fill="white"/>
<path d="M369.084 77.4784C357.712 77.1996 349.545 69.1498 349.875 58.5474C350.198 48.0321 359.027 39.9387 369.903 40.1826C380.926 40.4266 389.556 48.8161 389.364 59.1136C389.164 69.7596 380.343 77.7571 369.084 77.4784ZM379.707 59.1311C379.794 53.4335 375.728 49.0862 370.164 48.9207C364.086 48.7464 359.863 52.8759 359.811 59.0265C359.767 64.7851 363.816 68.9929 369.459 69.0539C375.293 69.1149 379.612 64.9245 379.699 59.1223L379.707 59.1311Z" fill="white"/>
<path d="M211.801 77.3914C200.412 77.2433 192.322 69.7336 192.322 59.3054C192.322 48.4416 201.082 40.1305 212.35 40.3047C223.46 40.4789 231.706 48.5723 231.576 59.1486C231.436 69.7771 223.034 77.5308 211.801 77.3826V77.3914ZM222.067 59.0963C222.172 53.3377 218.21 49.1212 212.541 48.9469C206.759 48.7727 202.31 52.9805 202.197 58.7391C202.083 64.6371 206.176 68.9582 211.958 69.0279C217.861 69.1063 221.954 65.0727 222.058 59.0876L222.067 59.0963Z" fill="white"/>
<path d="M135.757 57.7548C136.637 58.7044 137.377 59.4885 138.109 60.2813C141.748 64.2365 145.614 64.2104 149.28 60.3423C150.63 58.9222 151.779 55.542 154.348 58.112C156.525 60.29 153.878 62.2066 152.398 63.6354C148.671 67.1985 144.125 68.3572 139.371 66.1618C136.637 64.8986 134.565 64.7244 131.83 66.2141C127.703 68.4618 122.087 67.4076 118.787 63.9403C117.742 62.8426 116.749 60.1593 117.332 59.3927C118.996 57.1973 120.711 58.8961 122.209 60.3335C126.606 64.5501 129.775 64.341 133.711 59.6714C134.242 59.0442 134.922 58.5389 135.766 57.7548H135.757Z" fill="white"/>
</g>
<path d="M79.4834 107.574C79.4834 109.578 80.8721 111.494 83.2803 112.303L82.4365 113.604C80.6523 112.988 79.3428 111.758 78.6572 110.211C77.9717 111.916 76.6094 113.252 74.7549 113.902L73.8584 112.602C76.3193 111.758 77.7959 109.736 77.8135 107.557V107.135H74.3506V105.781H82.876V107.135H79.4834V107.574ZM86.3564 104.744V108.787H88.6416V110.193H86.3564V114.236H84.6865V104.744H86.3564ZM86.3564 115.01V120.494H84.6865V116.363H75.9502V115.01H86.3564ZM103.899 112.971V114.307H89.5381V112.971H103.899ZM102.282 118.807V120.16H91.3486V115.59H93.0361V118.807H102.282ZM96.71 105.271C100.12 105.254 102.335 106.449 102.335 108.418C102.335 110.404 100.12 111.6 96.71 111.617C93.2822 111.6 91.085 110.404 91.085 108.418C91.085 106.449 93.2822 105.254 96.71 105.271ZM96.71 106.607C94.3018 106.607 92.79 107.293 92.8076 108.418C92.79 109.578 94.3018 110.246 96.71 110.246C99.1182 110.246 100.612 109.578 100.612 108.418C100.612 107.293 99.1182 106.607 96.71 106.607ZM122.233 118.807V120.16H111.3V115.625H112.987V118.807H122.233ZM123.886 113.094V114.465H109.489V113.094H115.835V110.58H117.487V113.094H123.886ZM117.505 105.799C117.505 107.943 119.913 109.824 122.937 110.264L122.286 111.564C119.799 111.125 117.637 109.851 116.661 108.031C115.668 109.851 113.515 111.143 111.036 111.564L110.368 110.264C113.374 109.789 115.8 107.908 115.817 105.799V105.166H117.505V105.799ZM138.599 104.744V120.494H136.999V104.744H138.599ZM135.399 105.043V119.721H133.8V112.127H132.024C131.884 115.203 130.565 117.119 128.614 117.102C126.558 117.119 125.222 114.957 125.222 111.547C125.222 108.137 126.558 105.992 128.614 106.01C130.53 105.992 131.831 107.812 132.024 110.773H133.8V105.043H135.399ZM128.614 107.574C127.472 107.574 126.769 109.033 126.769 111.547C126.769 114.061 127.472 115.52 128.614 115.52C129.774 115.52 130.495 114.061 130.495 111.547C130.495 109.033 129.774 107.574 128.614 107.574ZM152.696 105.57V106.906H147.317V110.562C150.288 110.554 152.081 110.439 154.12 110.053L154.313 111.371C152.134 111.811 150.218 111.934 146.913 111.934H145.665V105.57H152.696ZM157.372 104.744V108.102H159.675V109.508H157.372V113.059H155.702V104.744H157.372ZM157.97 114.008V115.309H146.878V114.008H151.589V112.566H153.241V114.008H157.97ZM152.415 115.889C155.175 115.889 156.827 116.715 156.845 118.209C156.827 119.668 155.175 120.494 152.415 120.494C149.638 120.494 147.968 119.668 147.968 118.209C147.968 116.715 149.638 115.889 152.415 115.889ZM152.415 117.102C150.71 117.119 149.69 117.506 149.708 118.209C149.69 118.93 150.71 119.299 152.415 119.299C154.103 119.299 155.104 118.93 155.122 118.209C155.104 117.506 154.103 117.119 152.415 117.102ZM173.298 109.35V110.686H162.452V105.307H164.104V109.35H173.298ZM174.95 112.672V114.008H160.536V112.672H174.95ZM173.403 118.754V120.125H162.329V115.502H163.999V118.754H173.403ZM186.024 108.137C186.024 109.982 187.448 111.74 189.856 112.443L189.065 113.744C187.264 113.199 185.928 112.065 185.233 110.615C184.548 112.25 183.186 113.542 181.331 114.166L180.505 112.83C182.913 112.074 184.372 110.176 184.372 108.137V107.873H180.944V106.537H184.372V104.691H186.042V106.537H189.452V107.873H186.024V108.137ZM193.636 104.744V115.607H191.966V110.51H188.978V109.121H191.966V104.744H193.636ZM189.329 114.887C189.329 116.926 191.579 118.648 194.585 119.105L193.917 120.424C191.465 120.02 189.408 118.798 188.468 117.066C187.51 118.78 185.453 120.02 182.983 120.424L182.386 119.105C185.304 118.631 187.606 116.855 187.624 114.887V114.57H189.329V114.887ZM206.187 107.012C206.169 109.191 207.663 111.178 210.089 111.986L209.245 113.305C207.426 112.663 206.055 111.38 205.343 109.736C204.64 111.503 203.26 112.9 201.388 113.568L200.544 112.268C203.005 111.389 204.481 109.262 204.481 107.012V105.5H206.187V107.012ZM213.517 114.957V120.494H211.847V116.311H202.847V114.957H213.517ZM213.517 104.744V114.201H211.847V104.744H213.517ZM229.108 104.744V120.494H227.421V104.744H229.108ZM224.415 106.432C224.415 111.037 222.446 115.045 217.05 117.629L216.171 116.275C220.363 114.28 222.402 111.441 222.728 107.768H216.927V106.432H224.415ZM234.399 117.787L232.993 122.639H231.499L232.431 117.787H234.399ZM252.839 104.744V111.02H255.282V112.408H252.839V120.477H251.169V104.744H252.839ZM248.726 106.396C248.708 110.949 246.704 115.01 241.519 117.576L240.587 116.275C244.533 114.307 246.678 111.459 247.021 107.785H241.378V106.396H248.726ZM261.628 107.645C261.628 109.648 263.017 111.477 265.407 112.232L264.616 113.533C262.823 112.962 261.514 111.775 260.819 110.281C260.134 112.004 258.754 113.366 256.864 114.025L256.003 112.689C258.464 111.881 259.94 109.842 259.958 107.662V107.223H256.495V105.869H265.021V107.223H261.628V107.645ZM268.501 104.744V108.646H270.786V110.018H268.501V114.201H266.831V104.744H268.501ZM263.421 114.588C266.673 114.588 268.642 115.66 268.642 117.506C268.642 119.369 266.673 120.477 263.421 120.459C260.134 120.477 258.13 119.369 258.13 117.506C258.13 115.66 260.134 114.588 263.421 114.588ZM263.421 115.906C261.136 115.906 259.782 116.486 259.8 117.506C259.782 118.561 261.136 119.141 263.421 119.141C265.688 119.141 267.007 118.561 267.007 117.506C267.007 116.486 265.688 115.906 263.421 115.906ZM290.474 114.008V115.326H284.04V120.494H282.405V115.326H276.06V114.008H290.474ZM279.505 105.377V107.434H286.993V105.377H288.663V112.215H277.853V105.377H279.505ZM279.505 110.879H286.993V108.77H279.505V110.879ZM304.396 112.215V113.586H293.427V106.15H304.255V107.521H295.079V112.215H304.396ZM306.048 117.031V118.42H291.634V117.031H306.048ZM320.304 104.744V120.529H318.651V112.057H315.769V110.668H318.651V104.744H320.304ZM314.837 106.168V111.793H309.44V115.379C311.954 115.37 313.888 115.282 316.085 114.887L316.226 116.258C313.87 116.68 311.796 116.768 309.019 116.785H307.771V110.439H313.22V107.521H307.735V106.168H314.837ZM337.144 112.637V113.99H330.903V117.049H329.216V113.99H322.729V112.637H337.144ZM335.544 118.789V120.16H324.54V115.537H326.21V118.789H335.544ZM329.919 105.113C333.312 105.113 335.509 106.344 335.509 108.312C335.509 110.281 333.312 111.494 329.919 111.494C326.544 111.494 324.312 110.281 324.312 108.312C324.312 106.344 326.544 105.113 329.919 105.113ZM329.919 106.449C327.616 106.449 326.087 107.152 326.104 108.312C326.087 109.455 327.616 110.141 329.919 110.141C332.239 110.141 333.751 109.455 333.751 108.312C333.751 107.152 332.239 106.449 329.919 106.449ZM355.794 104.744V120.494H354.106V104.744H355.794ZM351.101 106.432C351.101 111.037 349.132 115.045 343.735 117.629L342.856 116.275C347.049 114.28 349.088 111.441 349.413 107.768H343.612V106.432H351.101ZM371.386 114.869V120.512H369.716V116.205H360.716V114.869H371.386ZM371.386 104.744V114.025H369.716V110.105H366.657C366.323 111.986 364.706 113.252 362.614 113.234C360.241 113.252 358.483 111.67 358.483 109.42C358.483 107.205 360.241 105.605 362.614 105.623C364.706 105.605 366.314 106.88 366.657 108.734H369.716V104.744H371.386ZM362.614 107.029C361.155 107.029 360.083 108.014 360.083 109.42C360.083 110.861 361.155 111.828 362.614 111.828C364.038 111.828 365.11 110.861 365.11 109.42C365.11 108.014 364.038 107.029 362.614 107.029ZM386.854 104.744V120.529H385.185V104.744H386.854ZM378.435 105.922C380.772 105.922 382.495 108.066 382.495 111.441C382.495 114.834 380.772 116.979 378.435 116.979C376.062 116.979 374.356 114.834 374.356 111.441C374.356 108.066 376.062 105.922 378.435 105.922ZM378.435 107.416C376.976 107.416 375.974 108.963 375.974 111.441C375.974 113.938 376.976 115.484 378.435 115.484C379.876 115.484 380.878 113.938 380.878 111.441C380.878 108.963 379.876 107.416 378.435 107.416ZM403.149 111.406V112.777H399.827V115.695C401.286 115.625 402.754 115.528 404.134 115.379L404.257 116.609C400.794 117.137 397.05 117.172 394.062 117.189L393.851 115.801C395.178 115.801 396.646 115.792 398.157 115.748V112.777H394.993V106.203H403.079V107.557H396.646V111.406H403.149ZM406.788 104.744V120.529H405.118V104.744H406.788ZM422.415 104.744V120.494H420.728V104.744H422.415ZM417.722 106.432C417.722 111.037 415.753 115.045 410.356 117.629L409.478 116.275C413.67 114.28 415.709 111.441 416.034 107.768H410.233V106.432H417.722ZM439.272 111.969V113.252H424.858V111.969H439.272ZM437.497 114.359V117.822H428.251V119.123H437.989V120.301H426.581V116.715H435.845V115.555H426.563V114.359H437.497ZM437.462 105.148V108.559H428.356V109.754H437.726V110.932H426.704V107.451H435.792V106.326H426.669V105.148H437.462ZM442.226 119.123C441.54 119.123 440.96 118.561 440.978 117.875C440.96 117.189 441.54 116.627 442.226 116.627C442.894 116.627 443.474 117.189 443.474 117.875C443.474 118.561 442.894 119.123 442.226 119.123Z" fill="white"/>
<defs>
<clipPath id="clip0_467_347">
<rect width="349.65" height="67.5" fill="white" transform="translate(84.1748 11.25)"/>
</clipPath>
</defs>
</svg>
