<svg width="202" height="100" viewBox="0 0 202 100" fill="none" xmlns="http://www.w3.org/2000/svg">
<g clip-path="url(#clip0_330_491)">
<path d="M105.54 23.3008C108.966 17.3271 112.998 13.3447 119.268 12.4057C128.633 10.9973 136.712 17.7075 138.199 28.5378C138.902 33.6616 138.797 38.8987 139.031 44.0872C139.193 47.6568 139.363 51.0241 144.025 51.9388C146.101 52.3435 145.899 54.7556 143.782 56.5769C139.977 59.8551 133.028 58.1148 131.145 53.0072C130.022 49.9475 129.836 46.5074 129.473 43.213C129.069 39.5381 129.142 35.7985 128.624 32.1399C128.099 28.4083 126.362 25.3244 122.419 24.1183C118.307 22.8556 114.824 24.0374 112.004 27.097C110.34 28.9021 108.813 30.8771 107.512 32.9574C106.195 35.0619 104.417 35.5314 102.155 35.4343C99.8119 35.3291 98.9393 33.8154 98.5029 31.9051C96.4103 22.6937 86.3267 20.4758 79.6447 28.2222C75.3381 33.2083 73.0354 39.1982 72.8738 45.8923C72.8091 48.4906 73.0919 51.1536 72.5587 53.6467C72.2759 54.9823 70.773 56.7307 69.5126 57.0382C67.4765 57.5401 65.1252 56.8278 64.5435 54.2861C63.9941 51.8983 63.5174 49.389 63.6547 46.9769C64.2607 36.8508 67.3795 27.5503 73.6979 19.5207C77.9641 14.0731 83.1917 10.1069 90.4959 9.9531C97.3637 9.8074 102.26 13.3123 104.482 19.8849C104.789 20.7834 105.048 21.6981 105.549 23.2927L105.54 23.3008Z" fill="#1B52B8"/>
<path d="M20.1043 80.1797C20.2174 77.9618 20.1851 75.7197 20.4679 73.518C20.8557 70.4988 22.7544 69.6489 24.9845 71.721C26.2045 72.8623 26.6893 72.3848 27.6751 71.7858C30.8827 69.8269 33.9207 70.0374 36.8941 72.4738C37.4112 72.9028 38.809 72.8543 39.4473 72.4576C45.4022 68.7504 50.7025 71.4296 50.9772 78.4232C51.0823 81.1348 51.1954 83.895 50.8076 86.5581C50.654 87.6265 49.1431 88.4926 48.2463 89.4478C47.4464 88.5088 46.1213 87.6589 45.9516 86.6147C45.5799 84.324 45.7819 81.9362 45.7658 79.5888C45.7577 77.1605 45.2567 74.894 42.3238 74.8779C39.5201 74.8617 38.6636 77.0472 38.4939 79.4512C38.3404 81.6691 38.3566 83.895 38.3242 86.121C38.3 87.9341 37.7263 89.4397 35.6579 89.3587C33.5976 89.2859 33.1693 87.6913 33.1693 85.9186C33.1693 83.4498 33.1936 80.9729 33.1047 78.5042C33.032 76.4158 32.0705 74.894 29.8404 74.716C27.6023 74.5379 26.2772 75.9463 25.9945 77.9375C25.6309 80.4873 25.6874 83.1018 25.6066 85.6839C25.5501 87.5375 25.2592 89.3668 22.9564 89.383C20.6699 89.3992 20.2578 87.6346 20.2578 85.7405C20.2578 83.8869 20.2578 82.0333 20.2578 80.1797C20.2012 80.1797 20.1528 80.1797 20.0962 80.1797H20.1043Z" fill="#1B52B8"/>
<path d="M102.592 79.848C102.592 77.7435 102.446 75.6308 102.656 73.5506C102.753 72.6035 103.351 71.2437 104.078 70.9604C104.854 70.6528 106.413 71.0818 106.963 71.7374C107.932 72.903 108.393 72.7735 109.564 72.0207C112.691 70.0052 115.923 69.989 118.703 72.6845C119.923 73.8582 120.569 73.5182 121.708 72.644C124.116 70.7904 126.879 70.2562 129.707 71.616C132.543 72.9759 133.19 75.5661 133.149 78.4558C133.117 80.9246 133.166 83.4015 133.157 85.8703C133.157 87.7563 132.753 89.4804 130.418 89.448C128.229 89.4156 128.003 87.6996 127.978 86.0079C127.946 83.6605 127.978 81.3131 127.946 78.9576C127.914 76.7236 127.025 74.9914 124.617 74.8457C122.225 74.7 120.965 76.3512 120.698 78.4882C120.407 80.8032 120.496 83.1748 120.448 85.5222C120.416 87.3354 120.343 89.2699 117.984 89.3347C115.325 89.4075 115.333 87.2949 115.317 85.3765C115.301 83.4015 115.301 81.4183 115.293 79.4433C115.285 76.9421 114.453 74.9995 111.665 74.7486C109.411 74.5462 107.843 76.5131 107.73 79.5728C107.649 81.6693 108.005 83.8386 107.593 85.8541C107.334 87.1492 106.187 89.0514 105.169 89.2375C102.882 89.6584 102.535 87.6591 102.559 85.7731C102.583 83.7981 102.559 81.815 102.559 79.8399C102.575 79.8399 102.583 79.8399 102.6 79.8399L102.592 79.848Z" fill="#1B52B8"/>
<path d="M181.807 80.3983C181.807 82.3733 181.992 84.3808 181.734 86.3234C181.588 87.3919 180.902 88.8812 180.069 89.2212C179.221 89.5612 177.427 89.0674 176.886 88.3227C175.852 86.9143 175.278 87.5619 174.244 88.1285C167.643 91.7143 162.334 88.606 162.221 81.1106C162.181 78.6418 162.221 76.1649 162.35 73.6961C162.447 71.8911 163.401 70.2803 165.283 70.7336C166.293 70.9764 167.457 72.6439 167.651 73.8176C168.03 76.1083 167.748 78.4961 167.812 80.8435C167.869 83.199 168.758 84.9555 171.408 85.1497C173.904 85.3278 175.779 83.7008 176.046 80.9002C176.231 78.9413 176.086 76.9501 176.07 74.967C176.062 73 176.207 71.0655 178.809 71.0088C181.354 70.9602 181.726 72.9191 181.847 74.8375C181.96 76.683 181.871 78.5447 181.871 80.3983H181.815H181.807Z" fill="#1B52B8"/>
<path d="M147.75 70.2964C153.591 70.2964 158.14 74.6755 158.027 80.1958C157.906 85.781 153.317 90.1115 147.596 90.0386C141.52 89.9577 137.068 85.6029 137.165 79.8316C137.254 74.1898 141.585 70.2964 147.75 70.2964ZM147.475 74.5055C144.453 74.5783 142.304 76.9743 142.393 80.1797C142.482 83.4012 144.768 85.781 147.709 85.7C150.456 85.6272 152.913 82.8994 152.905 79.9368C152.897 76.95 150.384 74.4326 147.483 74.4974L147.475 74.5055Z" fill="#1B52B8"/>
<path d="M65.1492 70.3213C71.0393 70.3213 75.2651 74.5709 75.1843 80.3988C75.1116 85.814 70.6273 90.0716 65.028 90.0393C58.96 90.0069 54.4353 85.6197 54.5404 79.8646C54.6454 74.2228 58.9923 70.3132 65.1492 70.3213ZM70.1344 79.9698C70.1344 76.8616 67.8155 74.5223 64.7936 74.579C61.8445 74.6356 59.6468 77.0639 59.6872 80.2369C59.7195 83.2885 62.1677 85.7897 65.036 85.725C67.9205 85.6602 70.1344 83.159 70.1344 79.9698Z" fill="#1B52B8"/>
<path d="M97.4932 80.4393C97.4932 82.4143 97.6629 84.4136 97.4286 86.3563C97.2993 87.4167 96.7095 88.9465 95.9257 89.2622C95.0935 89.6022 93.2271 89.076 92.7908 88.3475C91.8858 86.8258 91.393 87.3519 90.3184 88.0156C84.2343 91.7715 78.9177 88.817 78.7966 81.6534C78.7562 79.3061 78.7804 76.9587 78.8127 74.6194C78.837 72.6768 79.0389 70.5965 81.576 70.6693C84.1373 70.7422 84.105 72.9277 84.1454 74.8056C84.1858 76.902 84.1454 79.0066 84.1292 81.103C84.1211 83.5152 85.0342 85.3283 87.6601 85.3688C90.2456 85.4092 91.8454 83.8389 92.0878 81.3054C92.306 78.9823 92.1363 76.6187 92.1363 74.2713C92.1363 72.4987 92.5726 70.9931 94.7138 70.9526C96.8145 70.9122 97.4286 72.3449 97.469 74.1337C97.5175 76.2302 97.4771 78.3347 97.4852 80.4312L97.4932 80.4393Z" fill="#1B52B8"/>
<path d="M109.709 51.2585C107.124 49.7611 104.983 47.5918 102.745 47.4865C100.507 47.3732 98.1795 50.0848 95.8606 50.1415C93.7276 50.1901 91.441 48.5226 89.4857 47.2275C88.9686 46.8876 89.4049 45.1068 89.3968 43.9817C90.3664 44.1516 91.5622 44.0221 92.2813 44.5483C96.6605 47.7213 96.9595 47.8265 101.185 44.5483C102.43 43.5769 103.1 43.6336 104.272 44.694C107.77 47.8751 109.346 47.7294 112.812 44.694C113.58 44.0221 114.84 43.9331 115.882 43.5688C115.85 44.9044 116.367 46.8147 115.688 47.4704C114.097 49.0002 111.931 49.923 109.726 51.2585H109.709Z" fill="#1B52B8"/>
</g>
<defs>
<clipPath id="clip0_330_491">
<rect width="161.79" height="80.0941" fill="white" transform="translate(20.1045 9.95312)"/>
</clipPath>
</defs>
</svg>
