<svg width="112" height="24" viewBox="0 0 112 24" fill="none" xmlns="http://www.w3.org/2000/svg">
<path d="M22.9022 6.50346C22.6404 5.51804 21.8694 4.74196 20.8903 4.47858C19.1157 4 11.9999 4 11.9999 4C11.9999 4 4.88403 4 3.1094 4.47858C2.13036 4.742 1.35928 5.51804 1.09757 6.50346C0.62207 8.28958 0.62207 12.0162 0.62207 12.0162C0.62207 12.0162 0.62207 15.7427 1.09757 17.5289C1.35928 18.5143 2.13036 19.258 3.1094 19.5214C4.88403 20 11.9999 20 11.9999 20C11.9999 20 19.1157 20 20.8903 19.5214C21.8694 19.258 22.6404 18.5143 22.9022 17.5289C23.3777 15.7427 23.3777 12.0162 23.3777 12.0162C23.3777 12.0162 23.3777 8.28958 22.9022 6.50346ZM9.67257 15.3996V8.63271L15.62 12.0162L9.67257 15.3996Z" fill="black"/>
<path d="M56.0048 6.60928C53.0235 6.60928 50.6188 9.01396 50.6188 11.9952C50.6188 14.9765 53.0235 17.3812 56.0048 17.3812C58.986 17.3812 61.3907 14.9765 61.3907 11.9952C61.3907 9.01396 58.986 6.60928 56.0048 6.60928ZM56.0048 15.4968C54.0782 15.4968 52.5032 13.9265 52.5032 11.9952C52.5032 10.064 54.0735 8.49365 56.0048 8.49365C57.936 8.49365 59.5063 10.064 59.5063 11.9952C59.5063 13.9265 57.9313 15.4968 56.0048 15.4968ZM62.8673 6.38896C62.8673 7.0874 62.3048 7.64522 61.611 7.64522C60.9126 7.64522 60.3548 7.08271 60.3548 6.38896C60.3548 5.69521 60.9173 5.13271 61.611 5.13271C62.3048 5.13271 62.8673 5.69521 62.8673 6.38896ZM66.4345 7.66397C66.3548 5.98115 65.9704 4.49053 64.7376 3.2624C63.5095 2.03428 62.0188 1.6499 60.336 1.56553C58.6017 1.46709 53.4032 1.46709 51.6688 1.56553C49.9907 1.64521 48.5001 2.02959 47.2673 3.25771C46.0345 4.48584 45.6548 5.97646 45.5704 7.65928C45.472 9.39365 45.472 14.5921 45.5704 16.3265C45.6501 18.0093 46.0345 19.4999 47.2673 20.728C48.5001 21.9562 49.986 22.3405 51.6688 22.4249C53.4032 22.5233 58.6017 22.5233 60.336 22.4249C62.0188 22.3452 63.5095 21.9608 64.7376 20.728C65.9657 19.4999 66.3501 18.0093 66.4345 16.3265C66.5329 14.5921 66.5329 9.39834 66.4345 7.66397ZM64.1938 18.1874C63.8282 19.1062 63.1204 19.814 62.197 20.1843C60.8142 20.7327 57.5329 20.6062 56.0048 20.6062C54.4767 20.6062 51.1907 20.728 49.8126 20.1843C48.8938 19.8187 48.186 19.1108 47.8157 18.1874C47.2673 16.8046 47.3938 13.5233 47.3938 11.9952C47.3938 10.4671 47.272 7.18115 47.8157 5.80303C48.1813 4.88428 48.8892 4.17646 49.8126 3.80615C51.1954 3.25771 54.4767 3.38428 56.0048 3.38428C57.5329 3.38428 60.8188 3.2624 62.197 3.80615C63.1157 4.17178 63.8235 4.87959 64.1938 5.80303C64.7423 7.18584 64.6157 10.4671 64.6157 11.9952C64.6157 13.5233 64.7423 16.8093 64.1938 18.1874Z" fill="black"/>
<g clip-path="url(#clip0_330_513)">
<path d="M109.533 7.11175C109.548 7.32494 109.548 7.53817 109.548 7.75136C109.548 14.2539 104.599 21.7463 95.5533 21.7463C92.7665 21.7463 90.1777 20.9391 88 19.5382C88.396 19.5838 88.7766 19.5991 89.1878 19.5991C91.4873 19.5991 93.604 18.8224 95.2944 17.4976C93.132 17.4519 91.3198 16.0356 90.6954 14.0864C91 14.132 91.3045 14.1625 91.6244 14.1625C92.066 14.1625 92.5076 14.1016 92.9188 13.995C90.665 13.5381 88.9746 11.5585 88.9746 9.16759V9.1067C89.6294 9.47219 90.3909 9.70061 91.1979 9.73103C89.873 8.84777 89.005 7.34017 89.005 5.63458C89.005 4.72089 89.2487 3.88333 89.6751 3.15236C92.0964 6.13713 95.736 8.08633 99.8172 8.29956C99.7411 7.93408 99.6954 7.55341 99.6954 7.17269C99.6954 4.462 101.888 2.25391 104.614 2.25391C106.03 2.25391 107.31 2.84781 108.208 3.8072C109.32 3.59402 110.386 3.18283 111.33 2.61939C110.964 3.76155 110.188 4.72094 109.167 5.33003C110.157 5.22348 111.117 4.94931 112 4.56864C111.33 5.54322 110.492 6.4112 109.533 7.11175Z" fill="black"/>
</g>
<defs>
<clipPath id="clip0_330_513">
<rect width="24" height="24" fill="white" transform="translate(88)"/>
</clipPath>
</defs>
</svg>
